# xmcd
#
# Track frame offsets:
#	150
#	13830
#	28394
#	40840
#	55906
#	71293
#	86413
#	104290
#	118834
#	129922
#	143826
#	159156
#	169627
#	184436
#	193279
#
# Disc length: 2772 seconds
#
# Revision: 0
# Processed by: cddbd v1.5.2PL0 Copyright (c) Steve Scherf et al.
# Submitted via: EasyCDDAExtractor 10.2.0.1
#
DISCID=ce0ad20f
DTITLE=Carlito, Baduy e Toquinho - Os reis do batidão
DYEAR=2008
DGENRE=Sertanejo
TTITLE0=Vixi Maria
TTITLE1=Já chorei por amor
TTITLE2=Nois bebie de todo jeito
TTITLE3=Arroz com piqui
TTITLE4=Nosso amor é ouro
TTITLE5=Namoro na internet
TTITLE6=Vaca preta e boi zebu
TTITLE7=Bacharia
TTITLE8=Vem ni mim paixão
TTITLE9=Doi doi saudade
TTITLE10=A folha do coqueiro
TTITLE11=Matéria de amor
TTITLE12=Caixa preta do avião
TTITLE13=Morena do corpo mole
TTITLE14=Goiás
EXTD=
EXTT0=
EXTT1=
EXTT2=
EXTT3=
EXTT4=
EXTT5=
EXTT6=
EXTT7=
EXTT8=
EXTT9=
EXTT10=
EXTT11=
EXTT12=
EXTT13=
EXTT14=
PLAYORDER=
